<svg version="1.1" xmlns="http://www.w3.org/2000/svg" viewBox="0 0 2386.904296875 850.6326794012" width="4773.80859375" height="1701.2653588024">
  <!-- svg-source:excalidraw -->
  
  <defs>
    <style class="style-fonts">
      @font-face {
        font-family: "Virgil";
        src: url("https://excalidraw.com/Virgil.woff2");
      }
      @font-face {
        font-family: "Cascadia";
        src: url("https://excalidraw.com/Cascadia.woff2");
      }
      @font-face {
        font-family: "Assistant";
        src: url("https://excalidraw.com/Assistant-Regular.woff2");
      }
    </style>
    
  </defs>
  <rect x="0" y="0" width="2386.904296875" height="850.6326794012" fill="#ffffff"></rect><g stroke-linecap="round" transform="translate(773.871744791667 166.46601273453348) rotate(0 185.41796875 23.75)"><path d="M0 0 C75.6 0, 151.2 0, 370.84 0 M0 0 C131.48 0, 262.96 0, 370.84 0 M370.84 0 C370.84 17.44, 370.84 34.89, 370.84 47.5 M370.84 0 C370.84 18.28, 370.84 36.57, 370.84 47.5 M370.84 47.5 C293.4 47.5, 215.97 47.5, 0 47.5 M370.84 47.5 C230.31 47.5, 89.79 47.5, 0 47.5 M0 47.5 C0 33.3, 0 19.1, 0 0 M0 47.5 C0 33.37, 0 19.25, 0 0" stroke="#1e1e1e" stroke-width="1" fill="none"></path></g><g stroke-linecap="round" transform="translate(23.49479166666697 378.9660127345335) rotate(0 189.515625 23.75)"><path d="M0 0 C93.08 0, 186.15 0, 379.03 0 M0 0 C91.74 0, 183.48 0, 379.03 0 M379.03 0 C379.03 17.49, 379.03 34.97, 379.03 47.5 M379.03 0 C379.03 16.78, 379.03 33.56, 379.03 47.5 M379.03 47.5 C269.29 47.5, 159.54 47.5, 0 47.5 M379.03 47.5 C250.75 47.5, 122.48 47.5, 0 47.5 M0 47.5 C0 36.36, 0 25.21, 0 0 M0 47.5 C0 37.59, 0 27.67, 0 0" stroke="#1e1e1e" stroke-width="1" fill="none"></path></g><g stroke-linecap="round" transform="translate(10 788.9660127345334) rotate(0 88.7265625 23.75)"><path d="M0 0 C40.89 0, 81.79 0, 177.45 0 M0 0 C69.6 0, 139.2 0, 177.45 0 M177.45 0 C177.45 17.79, 177.45 35.58, 177.45 47.5 M177.45 0 C177.45 18.74, 177.45 37.47, 177.45 47.5 M177.45 47.5 C138.34 47.5, 99.23 47.5, 0 47.5 M177.45 47.5 C123.06 47.5, 68.67 47.5, 0 47.5 M0 47.5 C0 32.93, 0 18.36, 0 0 M0 47.5 C0 29.43, 0 11.36, 0 0" stroke="#1e1e1e" stroke-width="1" fill="none"></path></g><g stroke-linecap="round" transform="translate(250.873046875 788.9660127345334) rotate(0 96.5078125 23.75)"><path d="M0 0 C48.89 0, 97.77 0, 193.02 0 M0 0 C47.04 0, 94.08 0, 193.02 0 M193.02 0 C193.02 13.93, 193.02 27.87, 193.02 47.5 M193.02 0 C193.02 14.95, 193.02 29.89, 193.02 47.5 M193.02 47.5 C137.77 47.5, 82.53 47.5, 0 47.5 M193.02 47.5 C146.47 47.5, 99.93 47.5, 0 47.5 M0 47.5 C0 35.93, 0 24.36, 0 0 M0 47.5 C0 37.69, 0 27.87, 0 0" stroke="#1e1e1e" stroke-width="1" fill="none"></path></g><g stroke-linecap="round" transform="translate(998.166666666667 378.9660127345335) rotate(0 225.06640625 23.75)"><path d="M0 0 C144.39 0, 288.78 0, 450.13 0 M0 0 C160.22 0, 320.44 0, 450.13 0 M450.13 0 C450.13 16.77, 450.13 33.53, 450.13 47.5 M450.13 0 C450.13 13.37, 450.13 26.73, 450.13 47.5 M450.13 47.5 C359 47.5, 267.87 47.5, 0 47.5 M450.13 47.5 C359.09 47.5, 268.04 47.5, 0 47.5 M0 47.5 C0 37.36, 0 27.22, 0 0 M0 47.5 C0 36.85, 0 26.19, 0 0" stroke="#1e1e1e" stroke-width="1" fill="none"></path></g><g stroke-linecap="round" transform="translate(996.736328125 788.1326794012001) rotate(0 55.07421875 23.75)"><path d="M0 0 C40.46 0, 80.93 0, 110.15 0 M0 0 C37.83 0, 75.67 0, 110.15 0 M110.15 0 C110.15 10.39, 110.15 20.78, 110.15 47.5 M110.15 0 C110.15 12.25, 110.15 24.5, 110.15 47.5 M110.15 47.5 C73.68 47.5, 37.21 47.5, 0 47.5 M110.15 47.5 C78.61 47.5, 47.07 47.5, 0 47.5 M0 47.5 C0 31.32, 0 15.14, 0 0 M0 47.5 C0 31.01, 0 14.51, 0 0" stroke="#1e1e1e" stroke-width="1" fill="none"></path></g><g stroke-linecap="round" transform="translate(1319.1015625 788.1326794012001) rotate(0 115.38671875 23.75)"><path d="M0 0 C85.54 0, 171.08 0, 230.77 0 M0 0 C71.64 0, 143.28 0, 230.77 0 M230.77 0 C230.77 9.91, 230.77 19.81, 230.77 47.5 M230.77 0 C230.77 16.04, 230.77 32.09, 230.77 47.5 M230.77 47.5 C139.37 47.5, 47.96 47.5, 0 47.5 M230.77 47.5 C170.64 47.5, 110.5 47.5, 0 47.5 M0 47.5 C0 32.27, 0 17.05, 0 0 M0 47.5 C0 37.96, 0 28.42, 0 0" stroke="#1e1e1e" stroke-width="1" fill="none"></path></g><g stroke-linecap="round" transform="translate(1498.299479166667 378.9660127345335) rotate(0 349.48828125 23.75)"><path d="M0 0 C256.68 0, 513.36 0, 698.98 0 M0 0 C269.03 0, 538.07 0, 698.98 0 M698.98 0 C698.98 9.92, 698.98 19.84, 698.98 47.5 M698.98 0 C698.98 18, 698.98 36, 698.98 47.5 M698.98 47.5 C489.99 47.5, 281.01 47.5, 0 47.5 M698.98 47.5 C491.11 47.5, 283.25 47.5, 0 47.5 M0 47.5 C0 31.55, 0 15.6, 0 0 M0 47.5 C0 30.58, 0 13.66, 0 0" stroke="#1e1e1e" stroke-width="1" fill="none"></path></g><g stroke-linecap="round" transform="translate(1599.875 789.7993460678667) rotate(0 43.32421875 23.75)"><path d="M0 0 C31.9 0, 63.79 0, 86.65 0 M0 0 C30.61 0, 61.21 0, 86.65 0 M86.65 0 C86.65 13.75, 86.65 27.51, 86.65 47.5 M86.65 0 C86.65 16.08, 86.65 32.15, 86.65 47.5 M86.65 47.5 C66.32 47.5, 45.99 47.5, 0 47.5 M86.65 47.5 C68.57 47.5, 50.48 47.5, 0 47.5 M0 47.5 C0 34.61, 0 21.72, 0 0 M0 47.5 C0 34.93, 0 22.37, 0 0" stroke="#1e1e1e" stroke-width="1" fill="none"></path></g><g stroke-linecap="round" transform="translate(1738.076171875 565.6326794012) rotate(0 319.4140625 23.75)"><path d="M0 0 C239.24 0, 478.47 0, 638.83 0 M0 0 C251.98 0, 503.97 0, 638.83 0 M638.83 0 C638.83 10.47, 638.83 20.94, 638.83 47.5 M638.83 0 C638.83 14.56, 638.83 29.12, 638.83 47.5 M638.83 47.5 C442.87 47.5, 246.91 47.5, 0 47.5 M638.83 47.5 C395.83 47.5, 152.83 47.5, 0 47.5 M0 47.5 C0 36.53, 0 25.56, 0 0 M0 47.5 C0 33.63, 0 19.77, 0 0" stroke="#1e1e1e" stroke-width="1" fill="none"></path></g><g stroke-linecap="round" transform="translate(1895.458984375 663.1326794012) rotate(0 162.03125 23.75)"><path d="M0 0 C95.06 0, 190.11 0, 324.06 0 M0 0 C101.97 0, 203.94 0, 324.06 0 M324.06 0 C324.06 13.59, 324.06 27.19, 324.06 47.5 M324.06 0 C324.06 11.45, 324.06 22.91, 324.06 47.5 M324.06 47.5 C245.13 47.5, 166.19 47.5, 0 47.5 M324.06 47.5 C257.1 47.5, 190.14 47.5, 0 47.5 M0 47.5 C0 30.8, 0 14.09, 0 0 M0 47.5 C0 35.49, 0 23.47, 0 0" stroke="#1e1e1e" stroke-width="1" fill="none"></path></g><g stroke-linecap="round" transform="translate(1924.185546875 793.1326794012) rotate(0 35.5234375 23.75)"><path d="M0 0 C25.08 0, 50.15 0, 71.05 0 M0 0 C19.99 0, 39.98 0, 71.05 0 M71.05 0 C71.05 9.62, 71.05 19.23, 71.05 47.5 M71.05 0 C71.05 9.61, 71.05 19.22, 71.05 47.5 M71.05 47.5 C55.88 47.5, 40.71 47.5, 0 47.5 M71.05 47.5 C55.11 47.5, 39.18 47.5, 0 47.5 M0 47.5 C0 32.28, 0 17.06, 0 0 M0 47.5 C0 35.83, 0 24.16, 0 0" stroke="#1e1e1e" stroke-width="1" fill="none"></path></g><g stroke-linecap="round" transform="translate(2045.232421875 793.1326794012) rotate(0 110.0390625 23.75)"><path d="M0 0 C48.13 0, 96.26 0, 220.08 0 M0 0 C56.76 0, 113.52 0, 220.08 0 M220.08 0 C220.08 15.73, 220.08 31.46, 220.08 47.5 M220.08 0 C220.08 13.6, 220.08 27.2, 220.08 47.5 M220.08 47.5 C145.11 47.5, 70.13 47.5, 0 47.5 M220.08 47.5 C143.66 47.5, 67.24 47.5, 0 47.5 M0 47.5 C0 29.01, 0 10.52, 0 0 M0 47.5 C0 29.16, 0 10.82, 0 0" stroke="#1e1e1e" stroke-width="1" fill="none"></path></g><g mask="url(#mask-ktWFI964RtEeV8u2RGoDU)" stroke-linecap="round"><g transform="translate(772.871744791667 206.3988135236811) rotate(0 -281.18053906250003 83.6335996054262)"><path d="M0 0 C-117.29 10.18, -234.59 20.36, -562.36 48.82 M0 0 C-189.93 16.49, -379.87 32.98, -562.36 48.82 M-562.36 48.82 C-561.57 95.73, -560.77 142.65, -560.35 167.27 M-562.36 48.82 C-561.84 79.68, -561.31 110.55, -560.35 167.27" stroke="#1e1e1e" stroke-width="1" fill="none"></path></g><g transform="translate(772.871744791667 206.3988135236811) rotate(0 -281.18053906250003 83.6335996054262)"><path d="M-569.3 143.92 C-567.43 148.79, -565.57 153.66, -560.35 167.27 M-569.3 143.92 C-566.28 151.81, -563.26 159.69, -560.35 167.27" stroke="#1e1e1e" stroke-width="1" fill="none"></path></g><g transform="translate(772.871744791667 206.3988135236811) rotate(0 -281.18053906250003 83.6335996054262)"><path d="M-552.2 143.63 C-553.9 148.56, -555.6 153.49, -560.35 167.27 M-552.2 143.63 C-554.96 151.62, -557.71 159.6, -560.35 167.27" stroke="#1e1e1e" stroke-width="1" fill="none"></path></g></g><mask id="mask-ktWFI964RtEeV8u2RGoDU"><rect x="0" y="0" fill="#fff" width="1435.232822916667" height="473.66601273453347"></rect><rect x="115.46183854166702" y="243.71601273453348" fill="#000" width="190.09765625" height="23" opacity="1"></rect></mask><g mask="url(#mask-OeHb_KDdeAXWCIXOVKs0_)" stroke-linecap="round"><g transform="translate(168.22518787878812 427.4660127345335) rotate(0 -36.415760606060644 178.09999999999994)"><path d="M0 0 C-15.21 8.4, -30.42 16.81, -72.83 40.25 M0 0 C-27.6 15.25, -55.2 30.5, -72.83 40.25 M-72.83 40.25 C-71.92 134.71, -71.01 229.18, -69.78 356.2 M-72.83 40.25 C-71.92 134.21, -71.02 228.17, -69.78 356.2" stroke="#1e1e1e" stroke-width="1" fill="none"></path></g><g transform="translate(168.22518787878812 427.4660127345335) rotate(0 -36.415760606060644 178.09999999999994)"><path d="M-78.56 332.79 C-76.72 337.68, -74.89 342.57, -69.78 356.2 M-78.56 332.79 C-75.23 341.66, -71.9 350.53, -69.78 356.2" stroke="#1e1e1e" stroke-width="1" fill="none"></path></g><g transform="translate(168.22518787878812 427.4660127345335) rotate(0 -36.415760606060644 178.09999999999994)"><path d="M-61.46 332.63 C-63.19 337.55, -64.93 342.47, -69.78 356.2 M-61.46 332.63 C-64.61 341.56, -67.76 350.49, -69.78 356.2" stroke="#1e1e1e" stroke-width="1" fill="none"></path></g></g><mask id="mask-OeHb_KDdeAXWCIXOVKs0_"><rect x="0" y="0" fill="#fff" width="341.0567090909093" height="883.6660127345333"></rect><rect x="40.92101041666683" y="456.2160127345335" fill="#000" width="108.9453125" height="23" opacity="1"></rect></mask><g mask="url(#mask-X8jJZ0qVVg8Kl9Sg6P_V7)" stroke-linecap="round"><g transform="translate(262.90561818181845 427.4660127345335) rotate(0 42.0973528979456 178.09999999999994)"><path d="M0 0 C23.49 11.65, 46.99 23.31, 81.14 40.25 M0 0 C27.46 13.62, 54.92 27.24, 81.14 40.25 M81.14 40.25 C81.86 114.38, 82.57 188.51, 84.19 356.2 M81.14 40.25 C81.78 106.19, 82.42 172.12, 84.19 356.2" stroke="#1e1e1e" stroke-width="1" fill="none"></path></g><g transform="translate(262.90561818181845 427.4660127345335) rotate(0 42.0973528979456 178.09999999999994)"><path d="M75.42 332.79 C77.96 339.57, 80.5 346.35, 84.19 356.2 M75.42 332.79 C78.39 340.71, 81.36 348.64, 84.19 356.2" stroke="#1e1e1e" stroke-width="1" fill="none"></path></g><g transform="translate(262.90561818181845 427.4660127345335) rotate(0 42.0973528979456 178.09999999999994)"><path d="M92.52 332.63 C90.11 339.45, 87.7 346.28, 84.19 356.2 M92.52 332.63 C89.7 340.6, 86.88 348.58, 84.19 356.2" stroke="#1e1e1e" stroke-width="1" fill="none"></path></g></g><mask id="mask-X8jJZ0qVVg8Kl9Sg6P_V7"><rect x="0" y="0" fill="#fff" width="447.10032397770965" height="883.6660127345333"></rect><rect x="270.1267682291668" y="456.2160127345335" fill="#000" width="147.841796875" height="23" opacity="1"></rect></mask><g mask="url(#mask-pUn3yVSdoehhbzlk5B_UW)" stroke-linecap="round"><g transform="translate(859.7404606060609 214.96601273453348) rotate(0 -80.94689696969698 82.68333333333325)"><path d="M0 0 C-35.68 8.87, -71.37 17.74, -161.89 40.25 M0 0 C-49.62 12.34, -99.25 24.67, -161.89 40.25 M-161.89 40.25 C-161.56 78.63, -161.23 117.01, -160.81 165.37 M-161.89 40.25 C-161.48 87.84, -161.07 135.43, -160.81 165.37" stroke="#1e1e1e" stroke-width="1" fill="none"></path></g><g transform="translate(859.7404606060609 214.96601273453348) rotate(0 -80.94689696969698 82.68333333333325)"><path d="M-169.57 141.95 C-167.64 147.11, -165.71 152.27, -160.81 165.37 M-169.57 141.95 C-166.88 149.13, -164.2 156.31, -160.81 165.37" stroke="#1e1e1e" stroke-width="1" fill="none"></path></g><g transform="translate(859.7404606060609 214.96601273453348) rotate(0 -80.94689696969698 82.68333333333325)"><path d="M-152.46 141.8 C-154.3 147, -156.14 152.19, -160.81 165.37 M-152.46 141.8 C-155.02 149.02, -157.58 156.25, -160.81 165.37" stroke="#1e1e1e" stroke-width="1" fill="none"></path></g></g><mask id="mask-pUn3yVSdoehhbzlk5B_UW"><rect x="0" y="0" fill="#fff" width="1121.634254545455" height="480.3326794012"></rect><rect x="624.4921744791669" y="232.21601273453348" fill="#000" width="146.708984375" height="46" opacity="1"></rect></mask><g mask="url(#mask-5am4f2O2aww8jit5vh4ws)" stroke-linecap="round"><g transform="translate(1058.8388727272732 214.96601273453348) rotate(0 81.95071023727144 79.35)"><path d="M0 0 C46.33 11.52, 92.67 23.04, 161.89 40.25 M0 0 C39.04 9.71, 78.08 19.41, 161.89 40.25 M161.89 40.25 C162.38 69.1, 162.87 97.96, 163.9 158.7 M161.89 40.25 C162.31 64.72, 162.72 89.2, 163.9 158.7" stroke="#1e1e1e" stroke-width="1" fill="none"></path></g><g transform="translate(1058.8388727272732 214.96601273453348) rotate(0 81.95071023727144 79.35)"><path d="M154.95 135.36 C157.51 142.04, 160.08 148.72, 163.9 158.7 M154.95 135.36 C157.11 140.98, 159.27 146.61, 163.9 158.7" stroke="#1e1e1e" stroke-width="1" fill="none"></path></g><g transform="translate(1058.8388727272732 214.96601273453348) rotate(0 81.95071023727144 79.35)"><path d="M172.05 135.07 C169.72 141.83, 167.39 148.59, 163.9 158.7 M172.05 135.07 C170.09 140.77, 168.12 146.46, 163.9 158.7" stroke="#1e1e1e" stroke-width="1" fill="none"></path></g></g><mask id="mask-5am4f2O2aww8jit5vh4ws"><rect x="0" y="0" fill="#fff" width="1322.740293201816" height="473.66601273453347"></rect><rect x="1126.792236979167" y="243.71601273453348" fill="#000" width="187.880859375" height="23" opacity="1"></rect></mask><g mask="url(#mask-rkSU56c4ces14Om0T2AND)" stroke-linecap="round"><g transform="translate(1156.6911333333337 427.4660127345335) rotate(0 -54.106733333333366 177.6833333333333)"><path d="M0 0 C-21.91 8.15, -43.82 16.3, -108.21 40.25 M0 0 C-21.89 8.14, -43.78 16.28, -108.21 40.25 M-108.21 40.25 C-107.56 107.53, -106.91 174.81, -105.16 355.37 M-108.21 40.25 C-107.53 110.92, -106.84 181.59, -105.16 355.37" stroke="#1e1e1e" stroke-width="1" fill="none"></path></g><g transform="translate(1156.6911333333337 427.4660127345335) rotate(0 -54.106733333333366 177.6833333333333)"><path d="M-113.94 331.96 C-112.16 336.7, -110.38 341.44, -105.16 355.37 M-113.94 331.96 C-112.16 336.69, -110.39 341.43, -105.16 355.37" stroke="#1e1e1e" stroke-width="1" fill="none"></path></g><g transform="translate(1156.6911333333337 427.4660127345335) rotate(0 -54.106733333333366 177.6833333333333)"><path d="M-96.84 331.79 C-98.52 336.57, -100.21 341.34, -105.16 355.37 M-96.84 331.79 C-98.52 336.56, -100.21 341.33, -105.16 355.37" stroke="#1e1e1e" stroke-width="1" fill="none"></path></g></g><mask id="mask-rkSU56c4ces14Om0T2AND"><rect x="0" y="0" fill="#fff" width="1364.9046000000005" height="882.8326794012"></rect><rect x="1032.164190104167" y="456.2160127345335" fill="#000" width="32.626953125" height="23" opacity="1"></rect></mask><g mask="url(#mask-IoWnNcTko5RpHCag2I6TM)" stroke-linecap="round"><g transform="translate(1302.403454545455 427.4660127345335) rotate(0 65.90159450449642 177.6833333333333)"><path d="M0 0 C42.63 13.33, 85.26 26.65, 128.75 40.25 M0 0 C36.87 11.53, 73.73 23.05, 128.75 40.25 M128.75 40.25 C129.79 147.6, 130.83 254.95, 131.8 355.37 M128.75 40.25 C129.81 149.67, 130.87 259.08, 131.8 355.37" stroke="#1e1e1e" stroke-width="1" fill="none"></path></g><g transform="translate(1302.403454545455 427.4660127345335) rotate(0 65.90159450449642 177.6833333333333)"><path d="M123.03 331.96 C125.93 339.71, 128.84 347.46, 131.8 355.37 M123.03 331.96 C125.54 338.66, 128.05 345.36, 131.8 355.37" stroke="#1e1e1e" stroke-width="1" fill="none"></path></g><g transform="translate(1302.403454545455 427.4660127345335) rotate(0 65.90159450449642 177.6833333333333)"><path d="M140.13 331.79 C137.37 339.6, 134.61 347.4, 131.8 355.37 M140.13 331.79 C137.74 338.54, 135.36 345.29, 131.8 355.37" stroke="#1e1e1e" stroke-width="1" fill="none"></path></g></g><mask id="mask-IoWnNcTko5RpHCag2I6TM"><rect x="0" y="0" fill="#fff" width="1534.2066435544477" height="882.8326794012"></rect><rect x="1418.371463541667" y="456.2160127345335" fill="#000" width="25.56640625" height="23" opacity="1"></rect></mask><g mask="url(#mask-nmAzk1GKZTxCoFFgGVNLV)" stroke-linecap="round"><g transform="translate(1145.707682291667 203.8923773796534) rotate(0 350.79380570346467 84.88681767744005)"><path d="M0 0 C277.1 20.33, 554.19 40.66, 699.58 51.32 M0 0 C182.3 13.37, 364.6 26.75, 699.58 51.32 M699.58 51.32 C700.22 89.29, 700.87 127.27, 701.59 169.77 M699.58 51.32 C699.98 75.11, 700.39 98.9, 701.59 169.77" stroke="#1e1e1e" stroke-width="1" fill="none"></path></g><g transform="translate(1145.707682291667 203.8923773796534) rotate(0 350.79380570346467 84.88681767744005)"><path d="M692.64 146.43 C696.18 155.68, 699.73 164.92, 701.59 169.77 M692.64 146.43 C694.97 152.51, 697.3 158.6, 701.59 169.77" stroke="#1e1e1e" stroke-width="1" fill="none"></path></g><g transform="translate(1145.707682291667 203.8923773796534) rotate(0 350.79380570346467 84.88681767744005)"><path d="M709.74 146.14 C706.51 155.5, 703.28 164.86, 701.59 169.77 M709.74 146.14 C707.61 152.3, 705.49 158.46, 701.59 169.77" stroke="#1e1e1e" stroke-width="1" fill="none"></path></g></g><mask id="mask-nmAzk1GKZTxCoFFgGVNLV"><rect x="0" y="0" fill="#fff" width="1947.2952936985962" height="473.66601273453347"></rect><rect x="1749.672432291667" y="243.71601273453348" fill="#000" width="191.23046875" height="23" opacity="1"></rect></mask><g mask="url(#mask-wX4e8XeZV1YAD8s6_1QZS)" stroke-linecap="round"><g transform="translate(1768.617854545455 427.4660127345335) rotate(0 -64.37609393939397 178.51666666666662)"><path d="M0 0 C-38.49 12.03, -76.99 24.07, -128.75 40.25 M0 0 C-38.29 11.97, -76.58 23.94, -128.75 40.25 M-128.75 40.25 C-127.73 146.61, -126.7 252.97, -125.7 357.03 M-128.75 40.25 C-127.66 153.08, -126.58 265.9, -125.7 357.03" stroke="#1e1e1e" stroke-width="1" fill="none"></path></g><g transform="translate(1768.617854545455 427.4660127345335) rotate(0 -64.37609393939397 178.51666666666662)"><path d="M-134.48 333.62 C-131.85 340.62, -129.23 347.62, -125.7 357.03 M-134.48 333.62 C-131.87 340.59, -129.26 347.55, -125.7 357.03" stroke="#1e1e1e" stroke-width="1" fill="none"></path></g><g transform="translate(1768.617854545455 427.4660127345335) rotate(0 -64.37609393939397 178.51666666666662)"><path d="M-117.38 333.46 C-119.86 340.51, -122.35 347.56, -125.7 357.03 M-117.38 333.46 C-119.85 340.47, -122.33 347.48, -125.7 357.03" stroke="#1e1e1e" stroke-width="1" fill="none"></path></g></g><mask id="mask-wX4e8XeZV1YAD8s6_1QZS"><rect x="0" y="0" fill="#fff" width="1997.370042424243" height="884.4993460678668"></rect><rect x="1623.552190104167" y="456.2160127345335" fill="#000" width="32.626953125" height="23" opacity="1"></rect></mask><g mask="url(#mask-ulVXVLe2LrfYZclmLIAoU)" stroke-linecap="round"><g transform="translate(1926.3665757575764 427.4660127345335) rotate(0 65.16376673400714 66.43333333333325)"><path d="M0 0 C29.98 9.44, 59.97 18.89, 127.79 40.25 M0 0 C26.67 8.4, 53.34 16.8, 127.79 40.25 M127.79 40.25 C128.48 65.39, 129.17 90.52, 130.33 132.87 M127.79 40.25 C128.46 64.75, 129.13 89.26, 130.33 132.87" stroke="#1e1e1e" stroke-width="1" fill="none"></path></g><g transform="translate(1926.3665757575764 427.4660127345335) rotate(0 65.16376673400714 66.43333333333325)"><path d="M121.14 109.62 C123.29 115.07, 125.45 120.53, 130.33 132.87 M121.14 109.62 C123.05 114.47, 124.97 119.32, 130.33 132.87" stroke="#1e1e1e" stroke-width="1" fill="none"></path></g><g transform="translate(1926.3665757575764 427.4660127345335) rotate(0 65.16376673400714 66.43333333333325)"><path d="M138.23 109.15 C136.38 114.71, 134.52 120.28, 130.33 132.87 M138.23 109.15 C136.58 114.1, 134.93 119.05, 130.33 132.87" stroke="#1e1e1e" stroke-width="1" fill="none"></path></g></g><mask id="mask-ulVXVLe2LrfYZclmLIAoU"><rect x="0" y="0" fill="#fff" width="2156.6941092255906" height="660.3326794012"></rect><rect x="2041.3734635416668" y="456.2160127345335" fill="#000" width="25.56640625" height="23" opacity="1"></rect></mask><g stroke-linecap="round"><g transform="translate(2057.49 614.1326794012) rotate(0 0 21.849999999999994)"><path d="M0 0 C0 13.4, 0 26.81, 0 43.7 M0 0 C0 16.62, 0 33.25, 0 43.7" stroke="#1e1e1e" stroke-width="1" fill="none"></path></g><g transform="translate(2057.49 614.1326794012) rotate(0 0 21.849999999999994)"><path d="M-7.47 23.17 C-5.18 29.47, -2.89 35.76, 0 43.7 M-7.47 23.17 C-4.63 30.98, -1.79 38.79, 0 43.7" stroke="#1e1e1e" stroke-width="1" fill="none"></path></g><g transform="translate(2057.49 614.1326794012) rotate(0 0 21.849999999999994)"><path d="M7.47 23.17 C5.18 29.47, 2.89 35.76, 0 43.7 M7.47 23.17 C4.63 30.98, 1.79 38.79, 0 43.7" stroke="#1e1e1e" stroke-width="1" fill="none"></path></g></g><mask></mask><g mask="url(#mask-g8zKlTr8KU0nNm2DkhgZv)" stroke-linecap="round"><g transform="translate(2020.257684848485 711.6326794012) rotate(0 -30.274342424242434 38.099999999999966)"><path d="M0 0 C-14.75 9.8, -29.5 19.61, -60.55 40.25 M0 0 C-12.51 8.32, -25.02 16.63, -60.55 40.25 M-60.55 40.25 C-60.55 52.89, -60.55 65.53, -60.55 76.2 M-60.55 40.25 C-60.55 49.34, -60.55 58.44, -60.55 76.2" stroke="#1e1e1e" stroke-width="1" fill="none"></path></g><g transform="translate(2020.257684848485 711.6326794012) rotate(0 -30.274342424242434 38.099999999999966)"><path d="M-66.7 59.31 C-65.2 63.42, -63.7 67.54, -60.55 76.2 M-66.7 59.31 C-65.43 62.8, -64.16 66.29, -60.55 76.2" stroke="#1e1e1e" stroke-width="1" fill="none"></path></g><g transform="translate(2020.257684848485 711.6326794012) rotate(0 -30.274342424242434 38.099999999999966)"><path d="M-54.4 59.31 C-55.9 63.42, -57.4 67.54, -60.55 76.2 M-54.4 59.31 C-55.67 62.8, -56.94 66.29, -60.55 76.2" stroke="#1e1e1e" stroke-width="1" fill="none"></path></g></g><mask id="mask-g8zKlTr8KU0nNm2DkhgZv"><rect x="0" y="0" fill="#fff" width="2180.80636969697" height="887.8326794011999"></rect><rect x="1943.3955234374998" y="740.3826794012" fill="#000" width="32.626953125" height="23" opacity="1"></rect></mask><g mask="url(#mask-lk-zxlkoJ81PjvPCJ7icr)" stroke-linecap="round"><g transform="translate(2094.722315151515 711.6326794012) rotate(0 30.274342424242604 38.099999999999994)"><path d="M0 0 C12.93 8.59, 25.86 17.19, 60.55 40.25 M0 0 C13.58 9.03, 27.16 18.05, 60.55 40.25 M60.55 40.25 C60.55 51.77, 60.55 63.29, 60.55 76.2 M60.55 40.25 C60.55 49.08, 60.55 57.92, 60.55 76.2" stroke="#1e1e1e" stroke-width="1" fill="none"></path></g><g transform="translate(2094.722315151515 711.6326794012) rotate(0 30.274342424242604 38.099999999999994)"><path d="M54.4 59.31 C55.71 62.92, 57.03 66.52, 60.55 76.2 M54.4 59.31 C55.78 63.1, 57.16 66.89, 60.55 76.2" stroke="#1e1e1e" stroke-width="1" fill="none"></path></g><g transform="translate(2094.722315151515 711.6326794012) rotate(0 30.274342424242604 38.099999999999994)"><path d="M66.7 59.31 C65.38 62.92, 64.07 66.52, 60.55 76.2 M66.7 59.31 C65.32 63.1, 63.94 66.89, 60.55 76.2" stroke="#1e1e1e" stroke-width="1" fill="none"></path></g></g><mask id="mask-lk-zxlkoJ81PjvPCJ7icr"><rect x="0" y="0" fill="#fff" width="2255.271" height="887.8326794012"></rect><rect x="2142.487796875" y="740.3826794012" fill="#000" width="25.56640625" height="23" opacity="1"></rect></mask><g transform="translate(819.797526041667 178.71601273453348) rotate(0 139.4921875 11.5)"><text x="139.4921875" y="0" font-family="Helvetica, Segoe UI Emoji" font-size="20px" fill="#1e1e1e" text-anchor="middle" style="white-space: pre;" direction="ltr" dominant-baseline="text-before-edge">What is your primary objective?</text></g><g transform="translate(69.62174479166697 391.2160127345335) rotate(0 143.388671875 11.5)"><text x="143.388671875" y="0" font-family="Helvetica, Segoe UI Emoji" font-size="20px" fill="#1e1e1e" text-anchor="middle" style="white-space: pre;" direction="ltr" dominant-baseline="text-before-edge">Which is more important to you?</text></g><g transform="translate(30.923828125 801.2160127345334) rotate(0 67.802734375 11.5)"><text x="67.802734375" y="0" font-family="Helvetica, Segoe UI Emoji" font-size="20px" fill="#1e1e1e" text-anchor="middle" style="white-space: pre;" direction="ltr" dominant-baseline="text-before-edge">DAX Editor Pro</text></g><g transform="translate(277.341796875 801.2160127345334) rotate(0 70.0390625 11.5)"><text x="70.0390625" y="0" font-family="Helvetica, Segoe UI Emoji" font-size="20px" fill="#1e1e1e" text-anchor="middle" style="white-space: pre;" direction="ltr" dominant-baseline="text-before-edge">Tabular Editor 3</text></g><g transform="translate(1052.046549479167 391.2160127345335) rotate(0 171.1865234375 11.5)"><text x="171.1865234375" y="0" font-family="Helvetica, Segoe UI Emoji" font-size="20px" fill="#1e1e1e" text-anchor="middle" style="white-space: pre;" direction="ltr" dominant-baseline="text-before-edge">Are you comfortable with C# scripting?</text></g><g transform="translate(1012.3525390625 800.3826794012001) rotate(0 39.4580078125 11.5)"><text x="39.4580078125" y="0" font-family="Helvetica, Segoe UI Emoji" font-size="20px" fill="#1e1e1e" text-anchor="middle" style="white-space: pre;" direction="ltr" dominant-baseline="text-before-edge">TE3/TE2</text></g><g transform="translate(1347.2177734375 800.3826794012001) rotate(0 87.2705078125 11.5)"><text x="87.2705078125" y="0" font-family="Helvetica, Segoe UI Emoji" font-size="20px" fill="#1e1e1e" text-anchor="middle" style="white-space: pre;" direction="ltr" dominant-baseline="text-before-edge">Metadata Mechanic</text></g><g transform="translate(1566.567057291667 391.2160127345335) rotate(0 281.220703125 11.5)"><text x="281.220703125" y="0" font-family="Helvetica, Segoe UI Emoji" font-size="20px" fill="#1e1e1e" text-anchor="middle" style="white-space: pre;" direction="ltr" dominant-baseline="text-before-edge">Does your problem involve ALLSELECTED filtered by slicer(s)?</text></g><g transform="translate(1608.931640625 802.0493460678667) rotate(0 34.267578125 11.5)"><text x="34.267578125" y="0" font-family="Helvetica, Segoe UI Emoji" font-size="20px" fill="#1e1e1e" text-anchor="middle" style="white-space: pre;" direction="ltr" dominant-baseline="text-before-edge">TOCSV</text></g><g transform="translate(1778.2958984375 577.8826794012) rotate(0 279.1943359375 11.5)"><text x="279.1943359375" y="0" font-family="Helvetica, Segoe UI Emoji" font-size="20px" fill="#1e1e1e" text-anchor="middle" style="white-space: pre;" direction="ltr" dominant-baseline="text-before-edge">Check Virtual Tables with TE3, DAX Query View or DAX Studio</text></g><g transform="translate(1935.7568359375 675.3826794012) rotate(0 121.7333984375 11.5)"><text x="121.7333984375" y="0" font-family="Helvetica, Segoe UI Emoji" font-size="20px" fill="#1e1e1e" text-anchor="middle" style="white-space: pre;" direction="ltr" dominant-baseline="text-before-edge">Did that solve the problem?</text></g><g transform="translate(1935.802734375 805.3826794012) rotate(0 23.90625 11.5)"><text x="23.90625" y="0" font-family="Helvetica, Segoe UI Emoji" font-size="20px" fill="#1e1e1e" text-anchor="middle" style="white-space: pre;" direction="ltr" dominant-baseline="text-before-edge">Done</text></g><g transform="translate(2066.892578125 805.3826794012) rotate(0 88.37890625 11.5)"><text x="88.37890625" y="0" font-family="Helvetica, Segoe UI Emoji" font-size="20px" fill="#1e1e1e" text-anchor="middle" style="white-space: pre;" direction="ltr" dominant-baseline="text-before-edge">TE3 DAX Debugger</text></g><g transform="translate(115.46183854166702 243.71601273453348) rotate(0 376.2293671874999 46.31640039457382)"><text x="95.048828125" y="0" font-family="Helvetica, Segoe UI Emoji" font-size="20px" fill="#1e1e1e" text-anchor="middle" style="white-space: pre;" direction="ltr" dominant-baseline="text-before-edge">Author/edit measures</text></g><g transform="translate(40.92101041666683 456.2160127345335) rotate(0 90.88841685606064 149.34999999999994)"><text x="54.47265625" y="0" font-family="Helvetica, Segoe UI Emoji" font-size="20px" fill="#1e1e1e" text-anchor="middle" style="white-space: pre;" direction="ltr" dominant-baseline="text-before-edge">Ease of Use</text></g><g transform="translate(270.1267682291668 456.2160127345335) rotate(0 34.876202850597224 149.34999999999994)"><text x="73.9208984375" y="0" font-family="Helvetica, Segoe UI Emoji" font-size="20px" fill="#1e1e1e" text-anchor="middle" style="white-space: pre;" direction="ltr" dominant-baseline="text-before-edge">Max Feature Set</text></g><g transform="translate(624.4921744791669 232.21601273453348) rotate(0 154.30138915719698 65.43333333333325)"><text x="73.3544921875" y="0" font-family="Helvetica, Segoe UI Emoji" font-size="20px" fill="#1e1e1e" text-anchor="middle" style="white-space: pre;" direction="ltr" dominant-baseline="text-before-edge">Optimize a slow </text><text x="73.3544921875" y="23" font-family="Helvetica, Segoe UI Emoji" font-size="20px" fill="#1e1e1e" text-anchor="middle" style="white-space: pre;" direction="ltr" dominant-baseline="text-before-edge">measure</text></g><g transform="translate(1126.792236979167 243.71601273453348) rotate(0 13.997345985377507 50.599999999999994)"><text x="93.9404296875" y="0" font-family="Helvetica, Segoe UI Emoji" font-size="20px" fill="#1e1e1e" text-anchor="middle" style="white-space: pre;" direction="ltr" dominant-baseline="text-before-edge">Automate processing</text></g><g transform="translate(1032.164190104167 456.2160127345335) rotate(0 70.42020989583337 148.93333333333328)"><text x="16.3134765625" y="0" font-family="Helvetica, Segoe UI Emoji" font-size="20px" fill="#1e1e1e" text-anchor="middle" style="white-space: pre;" direction="ltr" dominant-baseline="text-before-edge">Yes</text></g><g transform="translate(1418.371463541667 456.2160127345335) rotate(0 -50.06641449171575 148.9333333333333)"><text x="12.783203125" y="0" font-family="Helvetica, Segoe UI Emoji" font-size="20px" fill="#1e1e1e" text-anchor="middle" style="white-space: pre;" direction="ltr" dominant-baseline="text-before-edge">No</text></g><g transform="translate(1749.672432291667 243.71601273453348) rotate(0 -253.17094429653542 45.06318232255997)"><text x="95.615234375" y="0" font-family="Helvetica, Segoe UI Emoji" font-size="20px" fill="#1e1e1e" text-anchor="middle" style="white-space: pre;" direction="ltr" dominant-baseline="text-before-edge">Debug measure code</text></g><g transform="translate(1623.552190104167 456.2160127345335) rotate(0 80.68957050189397 149.76666666666662)"><text x="16.3134765625" y="0" font-family="Helvetica, Segoe UI Emoji" font-size="20px" fill="#1e1e1e" text-anchor="middle" style="white-space: pre;" direction="ltr" dominant-baseline="text-before-edge">Yes</text></g><g transform="translate(2041.373463541667 456.2160127345335) rotate(0 -49.843121050083596 37.68333333333324)"><text x="12.783203125" y="0" font-family="Helvetica, Segoe UI Emoji" font-size="20px" fill="#1e1e1e" text-anchor="middle" style="white-space: pre;" direction="ltr" dominant-baseline="text-before-edge">No</text></g><g transform="translate(1943.3955234375 740.3826794012) rotate(0 46.587818986742434 9.349999999999966)"><text x="16.3134765625" y="0" font-family="Helvetica, Segoe UI Emoji" font-size="20px" fill="#1e1e1e" text-anchor="middle" style="white-space: pre;" direction="ltr" dominant-baseline="text-before-edge">Yes</text></g><g transform="translate(2142.487796875 740.3826794012) rotate(0 -17.491139299242604 9.349999999999994)"><text x="12.783203125" y="0" font-family="Helvetica, Segoe UI Emoji" font-size="20px" fill="#1e1e1e" text-anchor="middle" style="white-space: pre;" direction="ltr" dominant-baseline="text-before-edge">No</text></g><g stroke-linecap="round" transform="translate(773.871744791667 166.46601273453348) rotate(0 185.41796875 23.75)"><path d="M0 0 C126.33 0, 252.66 0, 370.84 0 M0 0 C128.76 0, 257.53 0, 370.84 0 M370.84 0 C370.84 18.49, 370.84 36.98, 370.84 47.5 M370.84 0 C370.84 18.34, 370.84 36.68, 370.84 47.5 M370.84 47.5 C247.06 47.5, 123.28 47.5, 0 47.5 M370.84 47.5 C290.73 47.5, 210.63 47.5, 0 47.5 M0 47.5 C0 35.35, 0 23.19, 0 0 M0 47.5 C0 35.22, 0 22.94, 0 0" stroke="#1e1e1e" stroke-width="1" fill="none"></path></g><g stroke-linecap="round" transform="translate(23.49479166666697 378.9660127345335) rotate(0 189.515625 23.75)"><path d="M0 0 C121.5 0, 243.01 0, 379.03 0 M0 0 C76.12 0, 152.23 0, 379.03 0 M379.03 0 C379.03 13.81, 379.03 27.62, 379.03 47.5 M379.03 0 C379.03 11.48, 379.03 22.96, 379.03 47.5 M379.03 47.5 C285.73 47.5, 192.43 47.5, 0 47.5 M379.03 47.5 C239.29 47.5, 99.55 47.5, 0 47.5 M0 47.5 C0 30.09, 0 12.69, 0 0 M0 47.5 C0 32.79, 0 18.08, 0 0" stroke="#1e1e1e" stroke-width="1" fill="none"></path></g><g stroke-linecap="round" transform="translate(10 788.9660127345334) rotate(0 88.7265625 23.75)"><path d="M0 0 C59.58 0, 119.16 0, 177.45 0 M0 0 C63.2 0, 126.4 0, 177.45 0 M177.45 0 C177.45 12.07, 177.45 24.14, 177.45 47.5 M177.45 0 C177.45 17.43, 177.45 34.86, 177.45 47.5 M177.45 47.5 C135.66 47.5, 93.86 47.5, 0 47.5 M177.45 47.5 C110.38 47.5, 43.31 47.5, 0 47.5 M0 47.5 C0 37.19, 0 26.87, 0 0 M0 47.5 C0 37.32, 0 27.14, 0 0" stroke="#1e1e1e" stroke-width="1" fill="none"></path></g><g stroke-linecap="round" transform="translate(250.873046875 788.9660127345334) rotate(0 96.5078125 23.75)"><path d="M0 0 C52.38 0, 104.77 0, 193.02 0 M0 0 C51.07 0, 102.13 0, 193.02 0 M193.02 0 C193.02 15.22, 193.02 30.45, 193.02 47.5 M193.02 0 C193.02 16, 193.02 32, 193.02 47.5 M193.02 47.5 C141.94 47.5, 90.86 47.5, 0 47.5 M193.02 47.5 C129.9 47.5, 66.78 47.5, 0 47.5 M0 47.5 C0 30.5, 0 13.51, 0 0 M0 47.5 C0 35.71, 0 23.93, 0 0" stroke="#1e1e1e" stroke-width="1" fill="none"></path></g><g stroke-linecap="round" transform="translate(998.166666666667 378.9660127345335) rotate(0 225.06640625 23.75)"><path d="M0 0 C103.95 0, 207.89 0, 450.13 0 M0 0 C131.39 0, 262.79 0, 450.13 0 M450.13 0 C450.13 17.03, 450.13 34.07, 450.13 47.5 M450.13 0 C450.13 13.37, 450.13 26.74, 450.13 47.5 M450.13 47.5 C345.19 47.5, 240.24 47.5, 0 47.5 M450.13 47.5 C272.43 47.5, 94.73 47.5, 0 47.5 M0 47.5 C0 33.97, 0 20.44, 0 0 M0 47.5 C0 36.9, 0 26.3, 0 0" stroke="#1e1e1e" stroke-width="1" fill="none"></path></g><g stroke-linecap="round" transform="translate(996.736328125 788.1326794012001) rotate(0 55.07421875 23.75)"><path d="M0 0 C38.73 0, 77.47 0, 110.15 0 M0 0 C27.86 0, 55.72 0, 110.15 0 M110.15 0 C110.15 18.07, 110.15 36.15, 110.15 47.5 M110.15 0 C110.15 15.24, 110.15 30.47, 110.15 47.5 M110.15 47.5 C66.81 47.5, 23.47 47.5, 0 47.5 M110.15 47.5 C67.15 47.5, 24.16 47.5, 0 47.5 M0 47.5 C0 30.57, 0 13.63, 0 0 M0 47.5 C0 32.2, 0 16.89, 0 0" stroke="#1e1e1e" stroke-width="1" fill="none"></path></g><g stroke-linecap="round" transform="translate(1319.1015625 788.1326794012001) rotate(0 115.38671875 23.75)"><path d="M0 0 C73.95 0, 147.9 0, 230.77 0 M0 0 C56.71 0, 113.41 0, 230.77 0 M230.77 0 C230.77 16.96, 230.77 33.92, 230.77 47.5 M230.77 0 C230.77 14.17, 230.77 28.33, 230.77 47.5 M230.77 47.5 C169.34 47.5, 107.91 47.5, 0 47.5 M230.77 47.5 C141.37 47.5, 51.96 47.5, 0 47.5 M0 47.5 C0 37.58, 0 27.67, 0 0 M0 47.5 C0 36.42, 0 25.34, 0 0" stroke="#1e1e1e" stroke-width="1" fill="none"></path></g><g stroke-linecap="round" transform="translate(1498.299479166667 378.9660127345335) rotate(0 349.48828125 23.75)"><path d="M0 0 C272.06 0, 544.12 0, 698.98 0 M0 0 C269.84 0, 539.69 0, 698.98 0 M698.98 0 C698.98 15.85, 698.98 31.71, 698.98 47.5 M698.98 0 C698.98 10.26, 698.98 20.52, 698.98 47.5 M698.98 47.5 C520.15 47.5, 341.32 47.5, 0 47.5 M698.98 47.5 C518.26 47.5, 337.54 47.5, 0 47.5 M0 47.5 C0 34.64, 0 21.77, 0 0 M0 47.5 C0 29.26, 0 11.01, 0 0" stroke="#1e1e1e" stroke-width="1" fill="none"></path></g><g stroke-linecap="round" transform="translate(1599.875 789.7993460678667) rotate(0 43.32421875 23.75)"><path d="M0 0 C25.19 0, 50.39 0, 86.65 0 M0 0 C20.95 0, 41.89 0, 86.65 0 M86.65 0 C86.65 11.69, 86.65 23.39, 86.65 47.5 M86.65 0 C86.65 17.51, 86.65 35.02, 86.65 47.5 M86.65 47.5 C54.9 47.5, 23.15 47.5, 0 47.5 M86.65 47.5 C59.82 47.5, 32.99 47.5, 0 47.5 M0 47.5 C0 29.41, 0 11.33, 0 0 M0 47.5 C0 34.39, 0 21.28, 0 0" stroke="#1e1e1e" stroke-width="1" fill="none"></path></g><g stroke-linecap="round" transform="translate(1738.076171875 565.6326794012) rotate(0 319.4140625 23.75)"><path d="M0 0 C162.35 0, 324.69 0, 638.83 0 M0 0 C234.44 0, 468.87 0, 638.83 0 M638.83 0 C638.83 11.19, 638.83 22.38, 638.83 47.5 M638.83 0 C638.83 17.95, 638.83 35.91, 638.83 47.5 M638.83 47.5 C500.12 47.5, 361.42 47.5, 0 47.5 M638.83 47.5 C501.92 47.5, 365.02 47.5, 0 47.5 M0 47.5 C0 33.19, 0 18.89, 0 0 M0 47.5 C0 32.35, 0 17.21, 0 0" stroke="#1e1e1e" stroke-width="1" fill="none"></path></g><g stroke-linecap="round" transform="translate(1895.458984375 663.1326794012) rotate(0 162.03125 23.75)"><path d="M0 0 C103.86 0, 207.72 0, 324.06 0 M0 0 C109.15 0, 218.31 0, 324.06 0 M324.06 0 C324.06 12.57, 324.06 25.14, 324.06 47.5 M324.06 0 C324.06 15.53, 324.06 31.07, 324.06 47.5 M324.06 47.5 C208.1 47.5, 92.15 47.5, 0 47.5 M324.06 47.5 C243.66 47.5, 163.25 47.5, 0 47.5 M0 47.5 C0 31.59, 0 15.68, 0 0 M0 47.5 C0 30.16, 0 12.81, 0 0" stroke="#1e1e1e" stroke-width="1" fill="none"></path></g><g stroke-linecap="round" transform="translate(1924.185546875 793.1326794012) rotate(0 35.5234375 23.75)"><path d="M0 0 C25.48 0, 50.96 0, 71.05 0 M0 0 C20 0, 40 0, 71.05 0 M71.05 0 C71.05 11.07, 71.05 22.15, 71.05 47.5 M71.05 0 C71.05 18.75, 71.05 37.5, 71.05 47.5 M71.05 47.5 C50.81 47.5, 30.57 47.5, 0 47.5 M71.05 47.5 C55.19 47.5, 39.34 47.5, 0 47.5 M0 47.5 C0 36.08, 0 24.66, 0 0 M0 47.5 C0 31.14, 0 14.79, 0 0" stroke="#1e1e1e" stroke-width="1" fill="none"></path></g><g stroke-linecap="round" transform="translate(2045.232421875 793.1326794012) rotate(0 110.0390625 23.75)"><path d="M0 0 C83.74 0, 167.48 0, 220.08 0 M0 0 C70.59 0, 141.18 0, 220.08 0 M220.08 0 C220.08 18.69, 220.08 37.38, 220.08 47.5 M220.08 0 C220.08 18.54, 220.08 37.08, 220.08 47.5 M220.08 47.5 C141.62 47.5, 63.16 47.5, 0 47.5 M220.08 47.5 C149.17 47.5, 78.27 47.5, 0 47.5 M0 47.5 C0 35.74, 0 23.98, 0 0 M0 47.5 C0 28.62, 0 9.74, 0 0" stroke="#1e1e1e" stroke-width="1" fill="none"></path></g><g mask="url(#mask-g8nD6An8ens6_MdshTiFI)" stroke-linecap="round"><g transform="translate(772.871744791667 206.3988135236811) rotate(0 -281.18053906250003 83.6335996054262)"><path d="M0 0 C-200.81 17.43, -401.62 34.86, -562.36 48.82 M0 0 C-167.72 14.56, -335.45 29.12, -562.36 48.82 M-562.36 48.82 C-561.83 80.35, -561.29 111.88, -560.35 167.27 M-562.36 48.82 C-561.58 94.71, -560.81 140.6, -560.35 167.27" stroke="#1e1e1e" stroke-width="1" fill="none"></path></g><g transform="translate(772.871744791667 206.3988135236811) rotate(0 -281.18053906250003 83.6335996054262)"><path d="M-569.3 143.92 C-566.11 152.26, -562.91 160.59, -560.35 167.27 M-569.3 143.92 C-566.63 150.89, -563.96 157.85, -560.35 167.27" stroke="#1e1e1e" stroke-width="1" fill="none"></path></g><g transform="translate(772.871744791667 206.3988135236811) rotate(0 -281.18053906250003 83.6335996054262)"><path d="M-552.2 143.63 C-555.11 152.07, -558.02 160.51, -560.35 167.27 M-552.2 143.63 C-554.63 150.68, -557.06 157.73, -560.35 167.27" stroke="#1e1e1e" stroke-width="1" fill="none"></path></g></g><mask id="mask-g8nD6An8ens6_MdshTiFI"><rect x="0" y="0" fill="#fff" width="1435.232822916667" height="473.66601273453347"></rect><rect x="115.46183854166702" y="243.71601273453348" fill="#000" width="190.09765625" height="23" opacity="1"></rect></mask><g mask="url(#mask-3Qoxe2IF_eJ3LIqwloOLL)" stroke-linecap="round"><g transform="translate(167.39185454545486 427.4660127345335) rotate(0 -36.415760606060644 178.09999999999994)"><path d="M0 0 C-24.31 13.43, -48.62 26.87, -72.83 40.25 M0 0 C-15.73 8.69, -31.46 17.39, -72.83 40.25 M-72.83 40.25 C-72.05 121.08, -71.27 201.92, -69.78 356.2 M-72.83 40.25 C-72.04 121.94, -71.25 203.63, -69.78 356.2" stroke="#1e1e1e" stroke-width="1" fill="none"></path></g><g transform="translate(167.39185454545486 427.4660127345335) rotate(0 -36.415760606060644 178.09999999999994)"><path d="M-78.56 332.79 C-75.63 340.6, -72.7 348.42, -69.78 356.2 M-78.56 332.79 C-76.66 337.85, -74.76 342.9, -69.78 356.2" stroke="#1e1e1e" stroke-width="1" fill="none"></path></g><g transform="translate(167.39185454545486 427.4660127345335) rotate(0 -36.415760606060644 178.09999999999994)"><path d="M-61.46 332.63 C-64.23 340.49, -67.01 348.36, -69.78 356.2 M-61.46 332.63 C-63.25 337.72, -65.05 342.81, -69.78 356.2" stroke="#1e1e1e" stroke-width="1" fill="none"></path></g></g><mask id="mask-3Qoxe2IF_eJ3LIqwloOLL"><rect x="0" y="0" fill="#fff" width="340.22337575757604" height="883.6660127345333"></rect><rect x="40.087677083333574" y="456.2160127345335" fill="#000" width="108.9453125" height="23" opacity="1"></rect></mask><g mask="url(#mask-cf4f4n39fo0CtxP_VIP9l)" stroke-linecap="round"><g transform="translate(262.90561818181845 427.4660127345335) rotate(0 42.0973528979456 178.09999999999994)"><path d="M0 0 C19.97 9.91, 39.95 19.82, 81.14 40.25 M0 0 C29.91 14.84, 59.83 29.68, 81.14 40.25 M81.14 40.25 C82.26 156.03, 83.38 271.8, 84.19 356.2 M81.14 40.25 C82.09 138.09, 83.03 235.92, 84.19 356.2" stroke="#1e1e1e" stroke-width="1" fill="none"></path></g><g transform="translate(262.90561818181845 427.4660127345335) rotate(0 42.0973528979456 178.09999999999994)"><path d="M75.42 332.79 C77.58 338.55, 79.74 344.32, 84.19 356.2 M75.42 332.79 C78.65 341.42, 81.89 350.05, 84.19 356.2" stroke="#1e1e1e" stroke-width="1" fill="none"></path></g><g transform="translate(262.90561818181845 427.4660127345335) rotate(0 42.0973528979456 178.09999999999994)"><path d="M92.52 332.63 C90.47 338.43, 88.42 344.23, 84.19 356.2 M92.52 332.63 C89.45 341.32, 86.38 350.01, 84.19 356.2" stroke="#1e1e1e" stroke-width="1" fill="none"></path></g></g><mask id="mask-cf4f4n39fo0CtxP_VIP9l"><rect x="0" y="0" fill="#fff" width="447.10032397770965" height="883.6660127345333"></rect><rect x="270.1267682291668" y="456.2160127345335" fill="#000" width="147.841796875" height="23" opacity="1"></rect></mask><g mask="url(#mask-wAFmJMbUpAVeIUt0M8HiW)" stroke-linecap="round"><g transform="translate(859.7404606060609 214.96601273453348) rotate(0 -80.94689696969698 82.68333333333325)"><path d="M0 0 C-38.13 9.48, -76.26 18.96, -161.89 40.25 M0 0 C-61.19 15.21, -122.38 30.43, -161.89 40.25 M-161.89 40.25 C-161.66 67.42, -161.42 94.58, -160.81 165.37 M-161.89 40.25 C-161.66 67.06, -161.43 93.88, -160.81 165.37" stroke="#1e1e1e" stroke-width="1" fill="none"></path></g><g transform="translate(859.7404606060609 214.96601273453348) rotate(0 -80.94689696969698 82.68333333333325)"><path d="M-169.57 141.95 C-167.5 147.46, -165.44 152.98, -160.81 165.37 M-169.57 141.95 C-166.26 150.8, -162.95 159.65, -160.81 165.37" stroke="#1e1e1e" stroke-width="1" fill="none"></path></g><g transform="translate(859.7404606060609 214.96601273453348) rotate(0 -80.94689696969698 82.68333333333325)"><path d="M-152.46 141.8 C-154.43 147.35, -156.4 152.9, -160.81 165.37 M-152.46 141.8 C-155.62 150.71, -158.77 159.61, -160.81 165.37" stroke="#1e1e1e" stroke-width="1" fill="none"></path></g></g><mask id="mask-wAFmJMbUpAVeIUt0M8HiW"><rect x="0" y="0" fill="#fff" width="1121.634254545455" height="480.3326794012"></rect><rect x="624.4921744791669" y="232.21601273453348" fill="#000" width="146.708984375" height="46" opacity="1"></rect></mask><g mask="url(#mask-NzPMruuBGv9KXwmvGQocn)" stroke-linecap="round"><g transform="translate(1058.8388727272732 214.96601273453348) rotate(0 81.95071023727144 79.35)"><path d="M0 0 C42.84 10.65, 85.68 21.3, 161.89 40.25 M0 0 C52.94 13.16, 105.88 26.32, 161.89 40.25 M161.89 40.25 C162.61 82.63, 163.33 125.02, 163.9 158.7 M161.89 40.25 C162.39 69.64, 162.89 99.03, 163.9 158.7" stroke="#1e1e1e" stroke-width="1" fill="none"></path></g><g transform="translate(1058.8388727272732 214.96601273453348) rotate(0 81.95071023727144 79.35)"><path d="M154.95 135.36 C157.32 141.53, 159.69 147.71, 163.9 158.7 M154.95 135.36 C157.88 142.99, 160.81 150.62, 163.9 158.7" stroke="#1e1e1e" stroke-width="1" fill="none"></path></g><g transform="translate(1058.8388727272732 214.96601273453348) rotate(0 81.95071023727144 79.35)"><path d="M172.05 135.07 C169.9 141.32, 167.74 147.57, 163.9 158.7 M172.05 135.07 C169.39 142.79, 166.72 150.52, 163.9 158.7" stroke="#1e1e1e" stroke-width="1" fill="none"></path></g></g><mask id="mask-NzPMruuBGv9KXwmvGQocn"><rect x="0" y="0" fill="#fff" width="1322.740293201816" height="473.66601273453347"></rect><rect x="1126.792236979167" y="243.71601273453348" fill="#000" width="187.880859375" height="23" opacity="1"></rect></mask><g mask="url(#mask-NosfaDhUSWuXFIo_pNd_y)" stroke-linecap="round"><g transform="translate(1156.6911333333337 427.4660127345335) rotate(0 -54.106733333333366 177.6833333333333)"><path d="M0 0 C-25.23 9.38, -50.46 18.77, -108.21 40.25 M0 0 C-42.72 15.89, -85.44 31.78, -108.21 40.25 M-108.21 40.25 C-107.34 130.01, -106.47 219.77, -105.16 355.37 M-108.21 40.25 C-107.53 110.56, -106.85 180.87, -105.16 355.37" stroke="#1e1e1e" stroke-width="1" fill="none"></path></g><g transform="translate(1156.6911333333337 427.4660127345335) rotate(0 -54.106733333333366 177.6833333333333)"><path d="M-113.94 331.96 C-111.89 337.42, -109.85 342.87, -105.16 355.37 M-113.94 331.96 C-110.47 341.2, -107.01 350.44, -105.16 355.37" stroke="#1e1e1e" stroke-width="1" fill="none"></path></g><g transform="translate(1156.6911333333337 427.4660127345335) rotate(0 -54.106733333333366 177.6833333333333)"><path d="M-96.84 331.79 C-98.78 337.29, -100.72 342.79, -105.16 355.37 M-96.84 331.79 C-100.12 341.1, -103.41 350.41, -105.16 355.37" stroke="#1e1e1e" stroke-width="1" fill="none"></path></g></g><mask id="mask-NosfaDhUSWuXFIo_pNd_y"><rect x="0" y="0" fill="#fff" width="1364.9046000000005" height="882.8326794012"></rect><rect x="1032.164190104167" y="456.2160127345335" fill="#000" width="32.626953125" height="23" opacity="1"></rect></mask><g mask="url(#mask-9lT_LJRhaC9x5h0FYtPWH)" stroke-linecap="round"><g transform="translate(1302.403454545455 427.4660127345335) rotate(0 65.90159450449642 177.6833333333333)"><path d="M0 0 C50.66 15.84, 101.32 31.67, 128.75 40.25 M0 0 C50.26 15.71, 100.52 31.42, 128.75 40.25 M128.75 40.25 C129.84 152.59, 130.93 264.93, 131.8 355.37 M128.75 40.25 C129.73 141.78, 130.72 243.3, 131.8 355.37" stroke="#1e1e1e" stroke-width="1" fill="none"></path></g><g transform="translate(1302.403454545455 427.4660127345335) rotate(0 65.90159450449642 177.6833333333333)"><path d="M123.03 331.96 C126.48 341.17, 129.93 350.38, 131.8 355.37 M123.03 331.96 C126.45 341.1, 129.88 350.23, 131.8 355.37" stroke="#1e1e1e" stroke-width="1" fill="none"></path></g><g transform="translate(1302.403454545455 427.4660127345335) rotate(0 65.90159450449642 177.6833333333333)"><path d="M140.13 331.79 C136.85 341.07, 133.58 350.34, 131.8 355.37 M140.13 331.79 C136.88 340.99, 133.63 350.2, 131.8 355.37" stroke="#1e1e1e" stroke-width="1" fill="none"></path></g></g><mask id="mask-9lT_LJRhaC9x5h0FYtPWH"><rect x="0" y="0" fill="#fff" width="1534.2066435544477" height="882.8326794012"></rect><rect x="1418.371463541667" y="456.2160127345335" fill="#000" width="25.56640625" height="23" opacity="1"></rect></mask><g mask="url(#mask-zXqphYjslLjIBgRQXti2w)" stroke-linecap="round"><g transform="translate(1145.707682291667 203.8923773796534) rotate(0 350.79380570346467 84.88681767744005)"><path d="M0 0 C186.22 13.66, 372.44 27.32, 699.58 51.32 M0 0 C271.03 19.88, 542.05 39.77, 699.58 51.32 M699.58 51.32 C700 76.05, 700.42 100.78, 701.59 169.77 M699.58 51.32 C700.05 78.96, 700.52 106.6, 701.59 169.77" stroke="#1e1e1e" stroke-width="1" fill="none"></path></g><g transform="translate(1145.707682291667 203.8923773796534) rotate(0 350.79380570346467 84.88681767744005)"><path d="M692.64 146.43 C695.02 152.64, 697.4 158.86, 701.59 169.77 M692.64 146.43 C696.11 155.47, 699.57 164.52, 701.59 169.77" stroke="#1e1e1e" stroke-width="1" fill="none"></path></g><g transform="translate(1145.707682291667 203.8923773796534) rotate(0 350.79380570346467 84.88681767744005)"><path d="M709.74 146.14 C707.57 152.43, 705.4 158.72, 701.59 169.77 M709.74 146.14 C706.58 155.3, 703.42 164.45, 701.59 169.77" stroke="#1e1e1e" stroke-width="1" fill="none"></path></g></g><mask id="mask-zXqphYjslLjIBgRQXti2w"><rect x="0" y="0" fill="#fff" width="1947.2952936985962" height="473.66601273453347"></rect><rect x="1749.672432291667" y="243.71601273453348" fill="#000" width="191.23046875" height="23" opacity="1"></rect></mask><g mask="url(#mask-I44fUuQ04fIq3un6asr5U)" stroke-linecap="round"><g transform="translate(1768.617854545455 427.4660127345335) rotate(0 -64.37609393939397 178.51666666666662)"><path d="M0 0 C-32.94 10.3, -65.88 20.6, -128.75 40.25 M0 0 C-33.29 10.41, -66.58 20.81, -128.75 40.25 M-128.75 40.25 C-127.93 126.03, -127.1 211.82, -125.7 357.03 M-128.75 40.25 C-127.58 161.92, -126.41 283.6, -125.7 357.03" stroke="#1e1e1e" stroke-width="1" fill="none"></path></g><g transform="translate(1768.617854545455 427.4660127345335) rotate(0 -64.37609393939397 178.51666666666662)"><path d="M-134.48 333.62 C-132.23 339.61, -129.98 345.6, -125.7 357.03 M-134.48 333.62 C-132.21 339.68, -129.94 345.73, -125.7 357.03" stroke="#1e1e1e" stroke-width="1" fill="none"></path></g><g transform="translate(1768.617854545455 427.4660127345335) rotate(0 -64.37609393939397 178.51666666666662)"><path d="M-117.38 333.46 C-119.5 339.49, -121.63 345.52, -125.7 357.03 M-117.38 333.46 C-119.53 339.55, -121.68 345.65, -125.7 357.03" stroke="#1e1e1e" stroke-width="1" fill="none"></path></g></g><mask id="mask-I44fUuQ04fIq3un6asr5U"><rect x="0" y="0" fill="#fff" width="1997.370042424243" height="884.4993460678668"></rect><rect x="1623.552190104167" y="456.2160127345335" fill="#000" width="32.626953125" height="23" opacity="1"></rect></mask><g mask="url(#mask-8Z2Up1sPbierQjYDxFCZ6)" stroke-linecap="round"><g transform="translate(1926.3665757575764 427.4660127345335) rotate(0 65.16376673400714 66.43333333333325)"><path d="M0 0 C46.83 14.75, 93.65 29.5, 127.79 40.25 M0 0 C39.57 12.46, 79.14 24.93, 127.79 40.25 M127.79 40.25 C128.76 75.51, 129.72 110.78, 130.33 132.87 M127.79 40.25 C128.49 65.81, 129.19 91.38, 130.33 132.87" stroke="#1e1e1e" stroke-width="1" fill="none"></path></g><g transform="translate(1926.3665757575764 427.4660127345335) rotate(0 65.16376673400714 66.43333333333325)"><path d="M121.14 109.62 C124.5 118.14, 127.87 126.66, 130.33 132.87 M121.14 109.62 C123.98 116.82, 126.83 124.02, 130.33 132.87" stroke="#1e1e1e" stroke-width="1" fill="none"></path></g><g transform="translate(1926.3665757575764 427.4660127345335) rotate(0 65.16376673400714 66.43333333333325)"><path d="M138.23 109.15 C135.34 117.84, 132.44 126.53, 130.33 132.87 M138.23 109.15 C135.78 116.49, 133.34 123.84, 130.33 132.87" stroke="#1e1e1e" stroke-width="1" fill="none"></path></g></g><mask id="mask-8Z2Up1sPbierQjYDxFCZ6"><rect x="0" y="0" fill="#fff" width="2156.6941092255906" height="660.3326794012"></rect><rect x="2041.3734635416668" y="456.2160127345335" fill="#000" width="25.56640625" height="23" opacity="1"></rect></mask><g stroke-linecap="round"><g transform="translate(2057.49 614.1326794012) rotate(0 0 21.849999999999994)"><path d="M0 0 C0 9.49, 0 18.98, 0 43.7 M0 0 C0 9.37, 0 18.73, 0 43.7" stroke="#1e1e1e" stroke-width="1" fill="none"></path></g><g transform="translate(2057.49 614.1326794012) rotate(0 0 21.849999999999994)"><path d="M-7.47 23.17 C-5.85 27.63, -4.23 32.08, 0 43.7 M-7.47 23.17 C-5.87 27.57, -4.27 31.97, 0 43.7" stroke="#1e1e1e" stroke-width="1" fill="none"></path></g><g transform="translate(2057.49 614.1326794012) rotate(0 0 21.849999999999994)"><path d="M7.47 23.17 C5.85 27.63, 4.23 32.08, 0 43.7 M7.47 23.17 C5.87 27.57, 4.27 31.97, 0 43.7" stroke="#1e1e1e" stroke-width="1" fill="none"></path></g></g><mask></mask><g mask="url(#mask-U8UZkZHavRhgY2wHQfMRr)" stroke-linecap="round"><g transform="translate(2020.257684848485 711.6326794012) rotate(0 -30.274342424242434 38.099999999999966)"><path d="M0 0 C-21.67 14.4, -43.33 28.81, -60.55 40.25 M0 0 C-15.02 9.99, -30.05 19.97, -60.55 40.25 M-60.55 40.25 C-60.55 52.29, -60.55 64.33, -60.55 76.2 M-60.55 40.25 C-60.55 53.38, -60.55 66.5, -60.55 76.2" stroke="#1e1e1e" stroke-width="1" fill="none"></path></g><g transform="translate(2020.257684848485 711.6326794012) rotate(0 -30.274342424242434 38.099999999999966)"><path d="M-66.7 59.31 C-64.5 65.35, -62.3 71.4, -60.55 76.2 M-66.7 59.31 C-65.17 63.5, -63.65 67.69, -60.55 76.2" stroke="#1e1e1e" stroke-width="1" fill="none"></path></g><g transform="translate(2020.257684848485 711.6326794012) rotate(0 -30.274342424242434 38.099999999999966)"><path d="M-54.4 59.31 C-56.6 65.35, -58.8 71.4, -60.55 76.2 M-54.4 59.31 C-55.93 63.5, -57.45 67.69, -60.55 76.2" stroke="#1e1e1e" stroke-width="1" fill="none"></path></g></g><mask id="mask-U8UZkZHavRhgY2wHQfMRr"><rect x="0" y="0" fill="#fff" width="2180.80636969697" height="887.8326794011999"></rect><rect x="1943.3955234374998" y="740.3826794012" fill="#000" width="32.626953125" height="23" opacity="1"></rect></mask><g mask="url(#mask-zcUtClkOk9G327UCTEMrs)" stroke-linecap="round"><g transform="translate(2094.722315151515 711.6326794012) rotate(0 30.274342424242604 38.099999999999994)"><path d="M0 0 C17.25 11.47, 34.49 22.93, 60.55 40.25 M0 0 C13.51 8.98, 27.02 17.96, 60.55 40.25 M60.55 40.25 C60.55 48.89, 60.55 57.54, 60.55 76.2 M60.55 40.25 C60.55 52.63, 60.55 65.01, 60.55 76.2" stroke="#1e1e1e" stroke-width="1" fill="none"></path></g><g transform="translate(2094.722315151515 711.6326794012) rotate(0 30.274342424242604 38.099999999999994)"><path d="M54.4 59.31 C56.15 64.12, 57.9 68.93, 60.55 76.2 M54.4 59.31 C55.77 63.08, 57.14 66.85, 60.55 76.2" stroke="#1e1e1e" stroke-width="1" fill="none"></path></g><g transform="translate(2094.722315151515 711.6326794012) rotate(0 30.274342424242604 38.099999999999994)"><path d="M66.7 59.31 C64.95 64.12, 63.19 68.93, 60.55 76.2 M66.7 59.31 C65.32 63.08, 63.95 66.85, 60.55 76.2" stroke="#1e1e1e" stroke-width="1" fill="none"></path></g></g><mask id="mask-zcUtClkOk9G327UCTEMrs"><rect x="0" y="0" fill="#fff" width="2255.271" height="887.8326794012"></rect><rect x="2142.487796875" y="740.3826794012" fill="#000" width="25.56640625" height="23" opacity="1"></rect></mask><g transform="translate(819.797526041667 178.71601273453348) rotate(0 139.4921875 11.5)"><text x="139.4921875" y="0" font-family="Helvetica, Segoe UI Emoji" font-size="20px" fill="#1e1e1e" text-anchor="middle" style="white-space: pre;" direction="ltr" dominant-baseline="text-before-edge">What is your primary objective?</text></g><g transform="translate(69.62174479166697 391.2160127345335) rotate(0 143.388671875 11.5)"><text x="143.388671875" y="0" font-family="Helvetica, Segoe UI Emoji" font-size="20px" fill="#1e1e1e" text-anchor="middle" style="white-space: pre;" direction="ltr" dominant-baseline="text-before-edge">Which is more important to you?</text></g><g transform="translate(30.923828125 801.2160127345334) rotate(0 67.802734375 11.5)"><text x="67.802734375" y="0" font-family="Helvetica, Segoe UI Emoji" font-size="20px" fill="#1e1e1e" text-anchor="middle" style="white-space: pre;" direction="ltr" dominant-baseline="text-before-edge">DAX Editor Pro</text></g><g transform="translate(277.341796875 801.2160127345334) rotate(0 70.0390625 11.5)"><text x="70.0390625" y="0" font-family="Helvetica, Segoe UI Emoji" font-size="20px" fill="#1e1e1e" text-anchor="middle" style="white-space: pre;" direction="ltr" dominant-baseline="text-before-edge">Tabular Editor 3</text></g><g transform="translate(1052.046549479167 391.2160127345335) rotate(0 171.1865234375 11.5)"><text x="171.1865234375" y="0" font-family="Helvetica, Segoe UI Emoji" font-size="20px" fill="#1e1e1e" text-anchor="middle" style="white-space: pre;" direction="ltr" dominant-baseline="text-before-edge">Are you comfortable with C# scripting?</text></g><g transform="translate(1012.3525390625 800.3826794012001) rotate(0 39.4580078125 11.5)"><text x="39.4580078125" y="0" font-family="Helvetica, Segoe UI Emoji" font-size="20px" fill="#1e1e1e" text-anchor="middle" style="white-space: pre;" direction="ltr" dominant-baseline="text-before-edge">TE3/TE2</text></g><g transform="translate(1347.2177734375 800.3826794012001) rotate(0 87.2705078125 11.5)"><text x="87.2705078125" y="0" font-family="Helvetica, Segoe UI Emoji" font-size="20px" fill="#1e1e1e" text-anchor="middle" style="white-space: pre;" direction="ltr" dominant-baseline="text-before-edge">Metadata Mechanic</text></g><g transform="translate(1566.567057291667 391.2160127345335) rotate(0 281.220703125 11.5)"><text x="281.220703125" y="0" font-family="Helvetica, Segoe UI Emoji" font-size="20px" fill="#1e1e1e" text-anchor="middle" style="white-space: pre;" direction="ltr" dominant-baseline="text-before-edge">Does your problem involve ALLSELECTED filtered by slicer(s)?</text></g><g transform="translate(1608.931640625 802.0493460678667) rotate(0 34.267578125 11.5)"><text x="34.267578125" y="0" font-family="Helvetica, Segoe UI Emoji" font-size="20px" fill="#1e1e1e" text-anchor="middle" style="white-space: pre;" direction="ltr" dominant-baseline="text-before-edge">TOCSV</text></g><g transform="translate(1935.7568359375 675.3826794012) rotate(0 121.7333984375 11.5)"><text x="121.7333984375" y="0" font-family="Helvetica, Segoe UI Emoji" font-size="20px" fill="#1e1e1e" text-anchor="middle" style="white-space: pre;" direction="ltr" dominant-baseline="text-before-edge">Did that solve the problem?</text></g><g transform="translate(1935.802734375 805.3826794012) rotate(0 23.90625 11.5)"><text x="23.90625" y="0" font-family="Helvetica, Segoe UI Emoji" font-size="20px" fill="#1e1e1e" text-anchor="middle" style="white-space: pre;" direction="ltr" dominant-baseline="text-before-edge">Done</text></g><g transform="translate(2066.892578125 805.3826794012) rotate(0 88.37890625 11.5)"><text x="88.37890625" y="0" font-family="Helvetica, Segoe UI Emoji" font-size="20px" fill="#1e1e1e" text-anchor="middle" style="white-space: pre;" direction="ltr" dominant-baseline="text-before-edge">TE3 DAX Debugger</text></g><g transform="translate(115.46183854166702 243.71601273453348) rotate(0 376.2293671874999 46.31640039457382)"><text x="95.048828125" y="0" font-family="Helvetica, Segoe UI Emoji" font-size="20px" fill="#1e1e1e" text-anchor="middle" style="white-space: pre;" direction="ltr" dominant-baseline="text-before-edge">Author/edit measures</text></g><g transform="translate(40.087677083333574 456.2160127345335) rotate(0 90.88841685606064 149.34999999999994)"><text x="54.47265625" y="0" font-family="Helvetica, Segoe UI Emoji" font-size="20px" fill="#1e1e1e" text-anchor="middle" style="white-space: pre;" direction="ltr" dominant-baseline="text-before-edge">Ease of Use</text></g><g transform="translate(270.1267682291668 456.2160127345335) rotate(0 34.876202850597224 149.34999999999994)"><text x="73.9208984375" y="0" font-family="Helvetica, Segoe UI Emoji" font-size="20px" fill="#1e1e1e" text-anchor="middle" style="white-space: pre;" direction="ltr" dominant-baseline="text-before-edge">Max Feature Set</text></g><g transform="translate(624.4921744791669 232.21601273453348) rotate(0 154.30138915719698 65.43333333333325)"><text x="73.3544921875" y="0" font-family="Helvetica, Segoe UI Emoji" font-size="20px" fill="#1e1e1e" text-anchor="middle" style="white-space: pre;" direction="ltr" dominant-baseline="text-before-edge">Optimize a slow </text><text x="73.3544921875" y="23" font-family="Helvetica, Segoe UI Emoji" font-size="20px" fill="#1e1e1e" text-anchor="middle" style="white-space: pre;" direction="ltr" dominant-baseline="text-before-edge">measure</text></g><g stroke-linecap="round" transform="translate(451.3593750000001 385.6326794012) rotate(0 247.8203125 23.75)"><path d="M0 0 C176.7 0, 353.4 0, 495.64 0 M0 0 C159.69 0, 319.37 0, 495.64 0 M495.64 0 C495.64 11.76, 495.64 23.52, 495.64 47.5 M495.64 0 C495.64 18.88, 495.64 37.76, 495.64 47.5 M495.64 47.5 C363.71 47.5, 231.77 47.5, 0 47.5 M495.64 47.5 C317.75 47.5, 139.86 47.5, 0 47.5 M0 47.5 C0 31.24, 0 14.98, 0 0 M0 47.5 C0 30.82, 0 14.14, 0 0" stroke="#1e1e1e" stroke-width="1" fill="none"></path></g><g stroke-linecap="round" transform="translate(489.3886718750001 788.9660127345333) rotate(0 78.75390625 23.75)"><path d="M0 0 C32.88 0, 65.76 0, 157.51 0 M0 0 C36.75 0, 73.5 0, 157.51 0 M157.51 0 C157.51 17.74, 157.51 35.47, 157.51 47.5 M157.51 0 C157.51 14.78, 157.51 29.57, 157.51 47.5 M157.51 47.5 C112.5 47.5, 67.49 47.5, 0 47.5 M157.51 47.5 C95.72 47.5, 33.93 47.5, 0 47.5 M0 47.5 C0 37.15, 0 26.8, 0 0 M0 47.5 C0 29.26, 0 11.03, 0 0" stroke="#1e1e1e" stroke-width="1" fill="none"></path></g><g stroke-linecap="round" transform="translate(805.6347656250001 788.9660127345333) rotate(0 68.30078125 23.75)"><path d="M0 0 C36.99 0, 73.98 0, 136.6 0 M0 0 C52.47 0, 104.93 0, 136.6 0 M136.6 0 C136.6 11.27, 136.6 22.54, 136.6 47.5 M136.6 0 C136.6 12, 136.6 23.99, 136.6 47.5 M136.6 47.5 C86.52 47.5, 36.44 47.5, 0 47.5 M136.6 47.5 C88.23 47.5, 39.85 47.5, 0 47.5 M0 47.5 C0 31.73, 0 15.95, 0 0 M0 47.5 C0 30.89, 0 14.28, 0 0" stroke="#1e1e1e" stroke-width="1" fill="none"></path></g><g mask="url(#mask-IfgtDLt3zydrmMypCHIH0)" stroke-linecap="round"><g transform="translate(649.2850484848486 434.1326794012) rotate(0 -40.571024242424244 174.76666666666662)"><path d="M0 0 C-30.89 15.32, -61.79 30.65, -81.14 40.25 M0 0 C-22.4 11.11, -44.79 22.22, -81.14 40.25 M-81.14 40.25 C-81.14 156.89, -81.14 273.52, -81.14 349.53 M-81.14 40.25 C-81.14 103.02, -81.14 165.8, -81.14 349.53" stroke="#1e1e1e" stroke-width="1" fill="none"></path></g><g transform="translate(649.2850484848486 434.1326794012) rotate(0 -40.571024242424244 174.76666666666662)"><path d="M-89.69 326.04 C-86.44 334.99, -83.18 343.93, -81.14 349.53 M-89.69 326.04 C-87.33 332.53, -84.97 339.01, -81.14 349.53" stroke="#1e1e1e" stroke-width="1" fill="none"></path></g><g transform="translate(649.2850484848486 434.1326794012) rotate(0 -40.571024242424244 174.76666666666662)"><path d="M-72.59 326.04 C-75.85 334.99, -79.1 343.93, -81.14 349.53 M-72.59 326.04 C-74.95 332.53, -77.31 339.01, -81.14 349.53" stroke="#1e1e1e" stroke-width="1" fill="none"></path></g></g><mask id="mask-IfgtDLt3zydrmMypCHIH0"><rect x="0" y="0" fill="#fff" width="830.4270969696971" height="883.6660127345333"></rect><rect x="549.7982734375001" y="462.8826794012" fill="#000" width="36.689453125" height="23" opacity="1"></rect></mask><g mask="url(#mask-O_kJhuNs0RA95Oxco8xOc)" stroke-linecap="round"><g transform="translate(765.7215575757577 434.1326794012) rotate(0 54.10722121212123 174.76666666666662)"><path d="M0 0 C32.59 12.12, 65.19 24.25, 108.21 40.25 M0 0 C34.51 12.83, 69.01 25.67, 108.21 40.25 M108.21 40.25 C108.21 122.08, 108.21 203.92, 108.21 349.53 M108.21 40.25 C108.21 130.81, 108.21 221.38, 108.21 349.53" stroke="#1e1e1e" stroke-width="1" fill="none"></path></g><g transform="translate(765.7215575757577 434.1326794012) rotate(0 54.10722121212123 174.76666666666662)"><path d="M99.66 326.04 C102.24 333.12, 104.81 340.19, 108.21 349.53 M99.66 326.04 C102.39 333.53, 105.12 341.02, 108.21 349.53" stroke="#1e1e1e" stroke-width="1" fill="none"></path></g><g transform="translate(765.7215575757577 434.1326794012) rotate(0 54.10722121212123 174.76666666666662)"><path d="M116.76 326.04 C114.19 333.12, 111.61 340.19, 108.21 349.53 M116.76 326.04 C114.04 333.53, 111.31 341.02, 108.21 349.53" stroke="#1e1e1e" stroke-width="1" fill="none"></path></g></g><mask id="mask-O_kJhuNs0RA95Oxco8xOc"><rect x="0" y="0" fill="#fff" width="973.9360000000001" height="883.6660127345333"></rect><rect x="791.6801406250001" y="462.8826794012" fill="#000" width="164.51171875" height="23" opacity="1"></rect></mask><g transform="translate(508.3105468750001 397.8826794012) rotate(0 190.869140625 11.5)"><text x="190.869140625" y="0" font-family="Helvetica, Segoe UI Emoji" font-size="20px" fill="#1e1e1e" text-anchor="middle" style="white-space: pre;" direction="ltr" dominant-baseline="text-before-edge">What's your skill level in DAX optimization?</text></g><g transform="translate(507.5517578125001 801.2160127345333) rotate(0 60.5908203125 11.5)"><text x="60.5908203125" y="0" font-family="Helvetica, Segoe UI Emoji" font-size="20px" fill="#1e1e1e" text-anchor="middle" style="white-space: pre;" direction="ltr" dominant-baseline="text-before-edge">Coming Soon</text></g><g transform="translate(822.2412109375001 801.2160127345333) rotate(0 51.6943359375 11.5)"><text x="51.6943359375" y="0" font-family="Helvetica, Segoe UI Emoji" font-size="20px" fill="#1e1e1e" text-anchor="middle" style="white-space: pre;" direction="ltr" dominant-baseline="text-before-edge">DAX Studio</text></g><g transform="translate(549.7982734375001 462.8826794012) rotate(0 58.915750804924244 146.01666666666662)"><text x="18.3447265625" y="0" font-family="Helvetica, Segoe UI Emoji" font-size="20px" fill="#1e1e1e" text-anchor="middle" style="white-space: pre;" direction="ltr" dominant-baseline="text-before-edge">Low</text></g><g transform="translate(791.6801406250001 462.8826794012) rotate(0 28.14863816287877 146.01666666666662)"><text x="82.255859375" y="0" font-family="Helvetica, Segoe UI Emoji" font-size="20px" fill="#1e1e1e" text-anchor="middle" style="white-space: pre;" direction="ltr" dominant-baseline="text-before-edge">Mid-level or higher</text></g><g stroke-linecap="round" transform="translate(451.3593750000001 385.6326794012) rotate(0 247.8203125 23.75)"><path d="M0 0 C186.92 0, 373.83 0, 495.64 0 M0 0 C100.6 0, 201.2 0, 495.64 0 M495.64 0 C495.64 14.81, 495.64 29.63, 495.64 47.5 M495.64 0 C495.64 13.79, 495.64 27.58, 495.64 47.5 M495.64 47.5 C387.11 47.5, 278.57 47.5, 0 47.5 M495.64 47.5 C375.17 47.5, 254.69 47.5, 0 47.5 M0 47.5 C0 32.33, 0 17.16, 0 0 M0 47.5 C0 37.43, 0 27.36, 0 0" stroke="#1e1e1e" stroke-width="1" fill="none"></path></g><g stroke-linecap="round" transform="translate(489.3886718750001 788.9660127345333) rotate(0 78.75390625 23.75)"><path d="M0 0 C41.68 0, 83.35 0, 157.51 0 M0 0 C46.12 0, 92.24 0, 157.51 0 M157.51 0 C157.51 17.48, 157.51 34.96, 157.51 47.5 M157.51 0 C157.51 15.97, 157.51 31.94, 157.51 47.5 M157.51 47.5 C115.71 47.5, 73.92 47.5, 0 47.5 M157.51 47.5 C96.28 47.5, 35.04 47.5, 0 47.5 M0 47.5 C0 37.37, 0 27.24, 0 0 M0 47.5 C0 29.92, 0 12.33, 0 0" stroke="#1e1e1e" stroke-width="1" fill="none"></path></g><g stroke-linecap="round" transform="translate(805.6347656250001 788.9660127345333) rotate(0 68.30078125 23.75)"><path d="M0 0 C30.18 0, 60.35 0, 136.6 0 M0 0 C32.21 0, 64.43 0, 136.6 0 M136.6 0 C136.6 11.41, 136.6 22.82, 136.6 47.5 M136.6 0 C136.6 11.93, 136.6 23.86, 136.6 47.5 M136.6 47.5 C105.7 47.5, 74.8 47.5, 0 47.5 M136.6 47.5 C98.89 47.5, 61.18 47.5, 0 47.5 M0 47.5 C0 31.8, 0 16.1, 0 0 M0 47.5 C0 28.97, 0 10.45, 0 0" stroke="#1e1e1e" stroke-width="1" fill="none"></path></g><g mask="url(#mask-clmuZdH8Yb8D0jKEacH1r)" stroke-linecap="round"><g transform="translate(649.2850484848486 434.1326794012) rotate(0 -40.571024242424244 174.76666666666662)"><path d="M0 0 C-18.86 9.35, -37.71 18.71, -81.14 40.25 M0 0 C-21.37 10.6, -42.74 21.2, -81.14 40.25 M-81.14 40.25 C-81.14 104.69, -81.14 169.13, -81.14 349.53 M-81.14 40.25 C-81.14 118.41, -81.14 196.57, -81.14 349.53" stroke="#1e1e1e" stroke-width="1" fill="none"></path></g><g transform="translate(649.2850484848486 434.1326794012) rotate(0 -40.571024242424244 174.76666666666662)"><path d="M-89.69 326.04 C-87.71 331.5, -85.72 336.96, -81.14 349.53 M-89.69 326.04 C-87.44 332.23, -85.19 338.42, -81.14 349.53" stroke="#1e1e1e" stroke-width="1" fill="none"></path></g><g transform="translate(649.2850484848486 434.1326794012) rotate(0 -40.571024242424244 174.76666666666662)"><path d="M-72.59 326.04 C-74.58 331.5, -76.57 336.96, -81.14 349.53 M-72.59 326.04 C-74.84 332.23, -77.1 338.42, -81.14 349.53" stroke="#1e1e1e" stroke-width="1" fill="none"></path></g></g><mask id="mask-clmuZdH8Yb8D0jKEacH1r"><rect x="0" y="0" fill="#fff" width="830.4270969696971" height="883.6660127345333"></rect><rect x="549.7982734375001" y="462.8826794012" fill="#000" width="36.689453125" height="23" opacity="1"></rect></mask><g mask="url(#mask-1LZPmw5gqFFUBGm8I-wKJ)" stroke-linecap="round"><g transform="translate(765.7215575757577 434.1326794012) rotate(0 54.10722121212123 174.76666666666662)"><path d="M0 0 C28.81 10.71, 57.61 21.43, 108.21 40.25 M0 0 C38.84 14.45, 77.68 28.89, 108.21 40.25 M108.21 40.25 C108.21 146.13, 108.21 252.01, 108.21 349.53 M108.21 40.25 C108.21 148.87, 108.21 257.49, 108.21 349.53" stroke="#1e1e1e" stroke-width="1" fill="none"></path></g><g transform="translate(765.7215575757577 434.1326794012) rotate(0 54.10722121212123 174.76666666666662)"><path d="M99.66 326.04 C101.94 332.29, 104.22 338.55, 108.21 349.53 M99.66 326.04 C102.73 334.47, 105.8 342.9, 108.21 349.53" stroke="#1e1e1e" stroke-width="1" fill="none"></path></g><g transform="translate(765.7215575757577 434.1326794012) rotate(0 54.10722121212123 174.76666666666662)"><path d="M116.76 326.04 C114.49 332.29, 112.21 338.55, 108.21 349.53 M116.76 326.04 C113.7 334.47, 110.63 342.9, 108.21 349.53" stroke="#1e1e1e" stroke-width="1" fill="none"></path></g></g><mask id="mask-1LZPmw5gqFFUBGm8I-wKJ"><rect x="0" y="0" fill="#fff" width="973.9360000000001" height="883.6660127345333"></rect><rect x="791.6801406250001" y="462.8826794012" fill="#000" width="164.51171875" height="23" opacity="1"></rect></mask><g transform="translate(508.3105468750001 397.8826794012) rotate(0 190.869140625 11.5)"><text x="190.869140625" y="0" font-family="Helvetica, Segoe UI Emoji" font-size="20px" fill="#1e1e1e" text-anchor="middle" style="white-space: pre;" direction="ltr" dominant-baseline="text-before-edge">What's your skill level in DAX optimization?</text></g><g transform="translate(507.5517578125001 801.2160127345333) rotate(0 60.5908203125 11.5)"><text x="60.5908203125" y="0" font-family="Helvetica, Segoe UI Emoji" font-size="20px" fill="#1e1e1e" text-anchor="middle" style="white-space: pre;" direction="ltr" dominant-baseline="text-before-edge">Coming Soon</text></g><g transform="translate(822.2412109375001 801.2160127345333) rotate(0 51.6943359375 11.5)"><text x="51.6943359375" y="0" font-family="Helvetica, Segoe UI Emoji" font-size="20px" fill="#1e1e1e" text-anchor="middle" style="white-space: pre;" direction="ltr" dominant-baseline="text-before-edge">DAX Studio</text></g><g transform="translate(549.7982734375001 462.8826794012) rotate(0 58.915750804924244 146.01666666666662)"><text x="18.3447265625" y="0" font-family="Helvetica, Segoe UI Emoji" font-size="20px" fill="#1e1e1e" text-anchor="middle" style="white-space: pre;" direction="ltr" dominant-baseline="text-before-edge">Low</text></g><g transform="translate(791.6801406250001 462.8826794012) rotate(0 28.14863816287877 146.01666666666662)"><text x="82.255859375" y="0" font-family="Helvetica, Segoe UI Emoji" font-size="20px" fill="#1e1e1e" text-anchor="middle" style="white-space: pre;" direction="ltr" dominant-baseline="text-before-edge">Mid-level or higher</text></g><g transform="translate(1126.792236979167 243.71601273453348) rotate(0 13.997345985377507 50.599999999999994)"><text x="93.9404296875" y="0" font-family="Helvetica, Segoe UI Emoji" font-size="20px" fill="#1e1e1e" text-anchor="middle" style="white-space: pre;" direction="ltr" dominant-baseline="text-before-edge">Automate processing</text></g><g transform="translate(1032.164190104167 456.2160127345335) rotate(0 70.42020989583337 148.93333333333328)"><text x="16.3134765625" y="0" font-family="Helvetica, Segoe UI Emoji" font-size="20px" fill="#1e1e1e" text-anchor="middle" style="white-space: pre;" direction="ltr" dominant-baseline="text-before-edge">Yes</text></g><g transform="translate(1418.371463541667 456.2160127345335) rotate(0 -50.06641449171575 148.9333333333333)"><text x="12.783203125" y="0" font-family="Helvetica, Segoe UI Emoji" font-size="20px" fill="#1e1e1e" text-anchor="middle" style="white-space: pre;" direction="ltr" dominant-baseline="text-before-edge">No</text></g><g transform="translate(1749.672432291667 243.71601273453348) rotate(0 -253.17094429653542 45.06318232255997)"><text x="95.615234375" y="0" font-family="Helvetica, Segoe UI Emoji" font-size="20px" fill="#1e1e1e" text-anchor="middle" style="white-space: pre;" direction="ltr" dominant-baseline="text-before-edge">Debug measure code</text></g><g transform="translate(1623.552190104167 456.2160127345335) rotate(0 80.68957050189397 149.76666666666662)"><text x="16.3134765625" y="0" font-family="Helvetica, Segoe UI Emoji" font-size="20px" fill="#1e1e1e" text-anchor="middle" style="white-space: pre;" direction="ltr" dominant-baseline="text-before-edge">Yes</text></g><g transform="translate(2041.373463541667 456.2160127345335) rotate(0 -49.843121050083596 37.68333333333324)"><text x="12.783203125" y="0" font-family="Helvetica, Segoe UI Emoji" font-size="20px" fill="#1e1e1e" text-anchor="middle" style="white-space: pre;" direction="ltr" dominant-baseline="text-before-edge">No</text></g><g transform="translate(1943.3955234375 740.3826794012) rotate(0 46.587818986742434 9.349999999999966)"><text x="16.3134765625" y="0" font-family="Helvetica, Segoe UI Emoji" font-size="20px" fill="#1e1e1e" text-anchor="middle" style="white-space: pre;" direction="ltr" dominant-baseline="text-before-edge">Yes</text></g><g transform="translate(2142.487796875 740.3826794012) rotate(0 -17.491139299242604 9.349999999999994)"><text x="12.783203125" y="0" font-family="Helvetica, Segoe UI Emoji" font-size="20px" fill="#1e1e1e" text-anchor="middle" style="white-space: pre;" direction="ltr" dominant-baseline="text-before-edge">No</text></g><g transform="translate(735.798736060402 10) rotate(0 387.8866882324219 32.36445203778709)"><text x="387.8866882324219" y="0" font-family="Helvetica, Segoe UI Emoji" font-size="56.286003543977564px" fill="#1e1e1e" text-anchor="middle" style="white-space: pre;" direction="ltr" dominant-baseline="text-before-edge">Which DAX Tool Should I Use?</text></g><g transform="translate(282.1915444556523 825.0398450202325) rotate(0 0.8333333333333144 0)" stroke="none"><path fill="#1e1e1e" d="M 2.12,-0.66 Q 2.12,-0.66 2.15,-0.13 2.18,0.40 1.96,0.88 1.74,1.36 1.32,1.69 0.91,2.02 0.38,2.12 -0.13,2.21 -0.64,2.05 -1.14,1.90 -1.52,1.52 -1.90,1.14 -2.05,0.64 -2.21,0.13 -2.12,-0.38 -2.02,-0.91 -1.69,-1.32 -1.36,-1.74 -0.88,-1.96 -0.39,-2.18 0.13,-2.15 0.66,-2.11 1.11,-1.84 1.57,-1.56 1.84,-1.11 L 2.12,-0.66 Z"></path></g></svg>